<?xml version="1.0" encoding="utf-8"?>
<!-- Generator: Adobe Illustrator 25.0.0, SVG Export Plug-In . SVG Version: 6.00 Build 0)  -->
<svg version="1.1" id="Layer_1" xmlns="http://www.w3.org/2000/svg" xmlns:xlink="http://www.w3.org/1999/xlink" x="0px" y="0px"
	 viewBox="0 0 529.8 85.1" style="enable-background:new 0 0 529.8 85.1;" xml:space="preserve">
<style type="text/css">
	.st0{fill:#7C3AED;}
	.st1{fill:#F9FAFB;}
</style>
<g>
	<path class="st0" d="M349.9,79.3c-8.9,0-16.5-1.7-23.3-6c-10-6.3-15.8-15.3-16.9-27c-1.1-10.8,1.8-20.4,9.2-28.4
		c6.1-6.6,13.8-10.3,22.6-11.7c9-1.4,17.8-0.6,26.1,3.4c11.9,5.7,19,15.1,20.6,28.2c1.3,10.7-1.2,20.3-8.4,28.6
		c-5.9,6.7-13.4,10.6-22.1,12.2C354.8,79.1,351.9,79.4,349.9,79.3z M368.2,42.5c0-1.5-0.1-3-0.4-4.4c-1.2-7.7-7.1-14-14.7-15.5
		c-8.3-1.6-15.8,1.4-20.1,8.3c-3,4.7-3.6,9.8-2.8,15.2c1,6.8,4.5,12.2,11,14.9c6.6,2.8,13.3,2.4,19.2-2
		C365.9,55,368.1,49.3,368.2,42.5z"/>
	<path class="st1" d="M32.5,79.3c-9.2-0.1-18.2-1.7-26.5-5.8c-1-0.5-1.9-1.1-2.8-1.6c-0.4-0.2-0.5-0.5-0.3-1
		c2.1-4.5,4.1-9.1,6.1-13.6c0.3-0.6,0.5-0.5,0.9-0.2c7.3,4.4,15.3,6.7,23.9,6.6c2.2,0,4.5-0.2,6.6-1c2.6-0.9,3.8-2.5,3.9-4.6
		c0-2.2-1.3-3.9-3.8-4.8c-4.1-1.5-8.3-2.4-12.6-3.4c-4.7-1.1-9.5-2.2-13.8-4.5c-5-2.6-8.7-6.5-9.8-12.2c-1.7-9.6,2-18.4,11.3-23.3
		c5.6-2.9,11.6-4,17.8-4.2c8.1-0.2,16,0.8,23.5,4c1.1,0.5,2.2,1.1,3.3,1.6c0.8,0.3,1,0.7,0.6,1.5c-1.9,4.3-3.7,8.7-5.5,13.1
		c-0.3,0.8-0.5,0.8-1.2,0.4c-6.2-3.2-12.7-5.2-19.7-5c-2.2,0.1-4.3,0.2-6.4,1c-0.8,0.3-1.6,0.7-2.3,1.3c-3,2.5-2.5,6.5,1.1,8.1
		c3.5,1.5,7.2,2.3,10.9,3.1c4.9,1.1,9.9,2,14.5,4.1c5.4,2.4,9.7,6,11.2,12.1c2.4,9.8-1.8,19.1-10.8,23.9
		C46.3,78.3,39.5,79.4,32.5,79.3z"/>
	<path class="st1" d="M262,42c4.1-4,8.1-7.9,12-11.7c2.4-2.3,4.7-4.5,7-6.8c0.3-0.3,0.5-0.5,1-0.5c7.4,0,14.8,0,22.4,0
		c-1.3,1.3-2.4,2.5-3.5,3.6c-6.1,6.3-12.3,12.6-18.5,18.9c-0.7,0.7-0.7,1.1-0.1,1.9c7.8,9.8,15.5,19.7,23.3,29.5
		c0.2,0.2,0.3,0.4,0.5,0.6c-0.2,0.4-0.5,0.2-0.8,0.2c-7.2,0-14.4,0-21.6,0c-0.8,0-1.1-0.3-1.6-0.8c-4.6-5.8-9.3-11.6-13.9-17.4
		c-0.7-0.9-1-0.8-1.7,0c-1.2,1.4-2.6,2.7-3.9,4c-0.6,0.5-0.8,1.1-0.8,1.9c0,3.8,0,7.6,0,11.4c0,0.8-0.2,1-1,1c-5.8,0-11.6,0-17.4,0
		c-0.8,0-1-0.2-1-1c0-24.4,0-48.8,0-73.2c0-0.8,0.3-1,1-1c5.8,0,11.5,0,17.3,0c1,0,1.1,0.3,1.1,1.2c0,12.2,0,24.4,0,36.6
		C262,40.9,262,41.3,262,42z"/>
	<path class="st0" d="M416.5,28.8c2.7-2.6,5.6-4.5,8.9-5.4c7-2.1,14-2,20.6,1.5c6.3,3.3,9.3,8.8,10.3,15.6c0.3,2.4,0.5,4.8,0.5,7.2
		c0,9.6,0,19.3,0,28.9c0,0.9-0.2,1.3-1.2,1.3c-5.7-0.1-11.4-0.1-17,0c-0.9,0-1.2-0.2-1.2-1.2c0-9.2,0-18.4,0-27.6
		c0-2.2-0.3-4.3-1.3-6.3c-1.5-3-4.5-4.7-8.2-4.4c-6.3,0.5-10.1,4.5-10.3,11.4c-0.2,5.1-0.1,10.1-0.1,15.2c0,3.9,0,7.9,0,11.8
		c0,0.8-0.1,1.1-1,1.1c-5.8,0-11.6,0-17.4,0c-0.8,0-1-0.2-1-1c0-17.6,0-35.2,0-52.9c0-0.8,0.1-1,1-1c5.5,0,11,0,16.5,0
		c0.8,0,1,0.3,1,1C416.5,25.5,416.5,27,416.5,28.8z"/>
	<path class="st1" d="M151.3,71.4c-3,4.7-7.4,6.6-12.6,7.2c-5.4,0.6-10.6,0.2-15.5-2.4c-9.3-4.8-10.7-15.9-6.5-22.5
		c2.4-3.9,6.2-5.8,10.5-7c3.4-0.9,6.8-1.2,10.3-1.2c3.8,0,7.5,0,11.3,0c0.9,0,1.2-0.1,1-1.1c-0.7-4-3.1-6.5-7.4-7.2
		c-6.6-1.1-12.7,0.1-18.3,3.8c-0.7,0.5-0.9,0.4-1.2-0.3c-1.8-3.8-3.7-7.5-5.6-11.2c-0.4-0.8-0.4-1.2,0.4-1.6
		c4.3-2.5,8.9-4.1,13.8-4.9c7.1-1.2,14.2-1.4,21.3,0.6c9.6,2.6,15,9,16.2,18.8c0.2,1.8,0.3,3.6,0.3,5.4c0,9.6,0,19.2,0,28.8
		c0,1.2-0.3,1.4-1.5,1.4c-5.2-0.1-10.3-0.1-15.5,0c-0.9,0-1.1-0.2-1.1-1.1C151.4,75,151.3,73.2,151.3,71.4z M144.3,55.5
		c-2.1,0-4.6-0.2-7,0.5c-2.6,0.8-4,2.4-4.1,4.9c-0.1,2.3,1.4,4.3,3.8,5.1c3,1,5.9,0.8,8.7-0.8c3.5-1.9,4.9-5.2,4.3-9.3
		c-0.1-0.6-0.4-0.5-0.8-0.5C147.7,55.5,146.2,55.5,144.3,55.5z"/>
	<path class="st0" d="M504.7,55.3c-6.2,0-12.5,0-18.7,0c-1.4,0-1.4,0-0.8,1.3c2,4.5,5.8,6.7,10.5,7.3c5.4,0.7,10.4-0.4,14.6-4.1
		c0.6-0.5,0.9-0.2,1.2,0.2c3,3.1,6,6.3,9.1,9.4c0.7,0.7,0.1,1-0.2,1.3c-2.9,2.9-6.2,5.1-10.2,6.3c-11.4,3.3-22.6,2.9-32.8-3.7
		c-8.7-5.7-12.5-14.2-12-24.4c0.6-14.4,11.3-24.2,24.3-26.2c7.3-1.1,14.4-0.5,21,3c8.1,4.2,12.8,11,14.1,20.1
		c0.4,2.9,0.3,5.8,0.1,8.7c-0.1,0.8-0.3,1-1.1,1C517.4,55.3,511,55.3,504.7,55.3z M495.7,45.2c3.4,0,6.8,0,10.2,0
		c0.9,0,1.1-0.2,0.9-1.1c-1.3-5-5.2-8.2-10.8-8.4c-5.3-0.2-9.9,3.2-11.3,8.2c-0.2,0.9-0.2,1.2,0.9,1.2
		C489,45.1,492.3,45.2,495.7,45.2z"/>
	<path class="st1" d="M210.9,78.8c-9.8,0-17.4-2.2-23.8-7.7c-5.9-5.2-8.9-11.8-9.1-19.7c-0.3-8.1,2.3-15.1,8.1-20.8
		c5.1-5,11.4-7.4,18.3-8.2c6.4-0.8,12.8-0.3,18.8,2.4c5.3,2.4,9.3,6.2,11.8,11.5c0.3,0.6,0.4,1-0.4,1.3c-4.5,2.2-9,4.5-13.4,6.8
		c-0.7,0.4-0.9,0.2-1.2-0.4c-1.7-3-3.9-5.3-7.4-6.2c-7.1-2-14,2.7-14.9,10c-0.3,2.4-0.3,4.8,0.4,7.1c1.5,4.8,4.7,7.7,9.7,8.4
		c4.8,0.7,8.6-1.2,11.4-5.1c0.5-0.7,0.6-1.9,1.5-2c0.7,0,1.5,0.7,2.2,1c3.9,2,7.8,4,11.7,5.9c0.7,0.4,0.7,0.7,0.4,1.3
		c-3.1,6.9-8.8,10.8-15.8,13C216,78.5,212.8,78.9,210.9,78.8z"/>
	<path class="st1" d="M105.6,62.2c1.2,3.5,2.4,6.9,3.7,10.3c0.2,0.6,0.4,1.1,0.6,1.7c0.6,1.7,0.6,1.7-1,2.4
		c-3.7,1.7-7.6,2.2-11.5,2.2c-4.1,0.1-8.1-0.4-11.9-2.1c-6.1-2.7-9.4-7.5-10.4-14c-0.5-3-0.3-6-0.3-9c0-4.3-0.1-8.7,0-13
		c0-1.2-0.4-1.4-1.4-1.3c-1.9,0.1-3.8,0-5.8,0c-0.8,0-0.9-0.2-0.9-0.9c0-4.2,0-8.4,0-12.6c0-0.8,0.3-1,1-1c2,0,4,0,6,0
		c0.8,0,1.1-0.2,1.1-1.1c0-4,0-8.1,0-12.1c0-1,0.3-1.2,1.2-1.2c5.7,0,11.3,0.1,17,0c1,0,1.2,0.3,1.2,1.2c0,3.8,0,7.5,0,11.2
		c0,1.9,0,1.9,1.9,1.9c3.2,0,6.4,0,9.6,0c0.8,0,1.1,0.2,1.1,1.1c0,4.1,0,8.2,0,12.3c0,0.8-0.2,1.1-1.1,1.1c-3.4,0-6.8,0-10.2,0
		c-1,0-1.3,0.2-1.3,1.3c0.1,5.5,0,11,0,16.5c0,5,3.2,7.6,8.2,6.4C103.3,63.3,104.4,62.8,105.6,62.2z"/>
</g>
</svg>
