<?xml version="1.0" encoding="utf-8"?>
<!-- Generator: Adobe Illustrator 25.0.0, SVG Export Plug-In . SVG Version: 6.00 Build 0)  -->
<svg version="1.1" id="Layer_1" xmlns="http://www.w3.org/2000/svg" xmlns:xlink="http://www.w3.org/1999/xlink" x="0px" y="0px"
	 viewBox="0 0 210.9 293.4" style="enable-background:new 0 0 210.9 293.4;" xml:space="preserve">
<style type="text/css">
	.st0{fill:#F9FAFB;}
	.st1{fill:#7C3AED;}
	.st2{fill:#FDFDFD;}
</style>
<g>
	<path class="st0" d="M107.3,232c8.5,0.2,18.2-0.7,27.7-2.6c6.3-1.2,12.5-2.9,18.5-5.1c5.2-1.8,10.1-4.1,14.7-7.1
		c5.4-3.5,10.2-7.6,12.8-13.8c2.5-6.1,1.7-11.8-1.7-17.2c-4-6.5-9.9-11.1-16.2-15.1c-6.4-4-13.4-6.8-20.6-9
		c-3.6-1.1-7.2-2.1-10.9-2.7c-1.1-0.2-1.7-0.6-1.4-1.8c0.5-3,0.3-6.2,1.4-9.1c1-2.9,3.4-4.6,6.2-5.7c3-1.2,6-0.6,9,0.1
		c8.7,2,16.8,5.5,24.4,9.9c7.6,4.3,14.3,9.7,20,16.3c5,5.8,9,12.2,11.9,19.4c2.6,6.6,4.1,13.4,4.7,20.5c0.4,4.6,0.3,9.2-0.1,13.8
		c-0.5,4.6-1.5,9.1-3.1,13.4c-2.9,8-7.4,15.2-13.3,21.3c-5.6,5.8-11.8,10.7-18.8,14.6c-6.2,3.5-12.6,6.5-19.3,8.8
		c-4,1.4-8.1,2.6-12.2,3.6c-3.8,1-7.7,1.6-11.6,2.2c-3.3,0.5-6.7,0.9-10.1,1.3c-2.9,0.3-5.9,0.5-8.8,0.6c-6.3,0.2-12.5,0-18.8-0.5
		c-4.4-0.4-8.8-1-13.2-1.7c-4.3-0.7-8.4-1.7-12.6-2.8c-4.6-1.2-9-2.8-13.4-4.6c-6.4-2.6-12.4-5.7-18.2-9.5c-3.3-2.1-6.4-4.5-9.3-7
		c-4.6-3.9-8.5-8.3-11.9-13.3c-3-4.4-5.3-9.2-6.9-14.3c-2.5-7.6-3.4-15.4-3-23.4c0.3-6.2,1.3-12.2,3.2-18.2
		c3.3-10.3,8.7-19.3,16.1-27.2c6.6-6.9,14.4-12.2,23-16.5c5.3-2.6,10.8-4.8,16.6-6.3c2.9-0.8,5.9-1.6,8.9-1.2
		c3.9,0.6,8.6,3.4,9.1,8.7c0.2,2.4,0.2,4.8,0.8,7.1c0.2,0.7-0.1,0.9-0.8,1.1c-6.4,1.4-12.7,3.1-18.8,5.4c-6.4,2.5-12.7,5.5-18.2,9.6
		c-6.2,4.6-11.5,10.2-13.6,18c-1.3,4.7-0.3,9.1,1.9,13.4c2,3.8,5.1,6.5,8.3,9.1c4.5,3.6,9.7,6.1,15,8.3c3.9,1.7,8,3,12.1,4.1
		c6.7,1.8,13.5,2.9,20.3,3.8C93.2,231.8,99.6,232,107.3,232z"/>
	<path class="st0" d="M94.5,165c0-8.4,0-16.9,0-25.3c0-1.6-0.1-1.6-1.7-2c-4.9-1-9.7-2.4-14.3-4.5c-7.9-3.6-15-8.5-21-14.8
		c-6.1-6.5-10.8-13.8-13.9-22.2c-1.6-4.4-2.7-9.1-3.3-13.8c-0.6-4.9-0.7-9.7-0.3-14.6c0.3-3.5,0.9-7,1.8-10.5
		c1.8-6.9,4.7-13.4,8.5-19.3c5-7.7,11.4-14,19.1-19c5.8-3.8,12.1-6.5,18.7-8.3c4.1-1.1,8.3-1.7,12.6-1.9c3.3-0.2,6.5-0.1,9.8,0.1
		c4.3,0.3,8.5,1.1,12.6,2.2c4.3,1.2,8.4,2.8,12.3,4.8c5,2.5,9.6,5.6,13.7,9.3c3.5,3.2,6.8,6.7,9.6,10.6c2.4,3.4,4.7,6.9,6.4,10.7
		c1.7,3.7,3,7.5,4,11.5c1.6,6.5,2.3,13.1,1.8,19.8c-0.3,3.8-0.8,7.6-1.8,11.3c-1.3,5.4-3.2,10.5-5.9,15.3
		c-3.1,5.8-7.1,10.9-11.7,15.5c-5.9,5.8-12.6,10.2-20.1,13.5c-4.4,2-9.1,3.4-13.9,4.3c-0.8,0.1-1,0.5-1,1.2c0,1.3,0,2.6,0,4
		c0,15.9,0,31.9,0,47.8c0,1.4,0.2,1.6,1.4,1.3c2.2-0.6,4.4-1.2,6.4-2.3c1.7-0.9,2.6-2.3,2.8-4.3c0.6-5.3,1-10.6,1.9-15.9
		c0.1-0.5,0.1-1,0.9-0.8c7.9,1.7,15.2,4.7,21.4,10c4.9,4.3,6.9,10.5,4.4,16.6c-1.4,3.6-4.1,6.1-7.2,8.4c-5.3,3.9-11.3,6.2-17.6,8
		c-10.3,2.9-20.7,3.6-31.3,3.1c-3.8-0.2-7.7-0.4-11.4-1.1c-5.9-1.1-11.7-2.6-17.2-5c-4-1.8-7.8-3.7-11-6.6c-4-3.6-6.4-7.9-5.9-13.4
		c0.4-3.8,2.2-7,4.9-9.6c3.5-3.4,7.8-5.8,12.3-7.7c3.1-1.3,6.3-2.1,9.5-2.8c0.6-0.1,0.9-0.1,1,0.7c0.6,3.5,0.9,7,1.4,10.4
		c0.3,2.3,0.2,4.7,0.8,7c0.4,1.4,1.2,2.4,2.5,3.1c1.8,1.1,3.8,1.7,5.9,2.3c1.6,0.4,2,0.1,2-1.6C94.5,182,94.5,173.5,94.5,165
		C94.5,165,94.5,165,94.5,165z M105.3,119.5c25.5,0.3,45.7-20.7,46-45c0.4-26.3-21.1-46.1-45.6-46.4c-25.8-0.3-47.2,20.2-46.4,47.3
		C60,99.3,79.9,119.9,105.3,119.5z"/>
	<path class="st1" d="M105.3,119.5c-25.3,0.3-45.2-20.2-46-44c-0.8-27,20.6-47.5,46.4-47.3c24.5,0.2,45.9,20,45.6,46.4
		C150.9,98.8,130.8,119.8,105.3,119.5z M74.8,55.1c-0.2,3.3,1,6,3.6,8c3.2,2.5,6.9,3.1,10.9,2.1c7.2-1.8,12.1-8.7,11.3-16.1
		c-0.5-4.6-4.1-8.5-9.2-9c-4.4-0.4-8.3,0.9-11.5,3.9C76.8,47.1,74.9,50.7,74.8,55.1z"/>
	<path class="st2" d="M74.8,55.1c0.1-4.4,1.9-8,5.1-11c3.2-3.1,7.1-4.4,11.5-4c5.1,0.5,8.7,4.4,9.2,9c0.8,7.4-4.1,14.2-11.3,16.1
		c-3.9,1-7.7,0.4-10.9-2.1C75.8,61.1,74.6,58.4,74.8,55.1z"/>
</g>
</svg>
