<?xml version="1.0" encoding="utf-8"?>
<!-- Generator: Adobe Illustrator 25.0.0, SVG Export Plug-In . SVG Version: 6.00 Build 0)  -->
<svg version="1.1" id="Layer_1" xmlns="http://www.w3.org/2000/svg" xmlns:xlink="http://www.w3.org/1999/xlink" x="0px" y="0px"
	 viewBox="0 0 210.89 293.44" style="enable-background:new 0 0 210.89 293.44;" xml:space="preserve">
<style type="text/css">
	.st0{fill:#121212;}
	.st1{fill:#7C3AED;}
	.st2{fill:#FDFDFD;}
</style>
<g>
	<path class="st0" d="M107.27,231.98c8.54,0.19,18.18-0.74,27.74-2.58c6.31-1.22,12.48-2.95,18.54-5.12
		c5.17-1.84,10.11-4.09,14.71-7.07c5.43-3.51,10.24-7.61,12.76-13.83c2.46-6.06,1.67-11.78-1.7-17.24
		c-4.02-6.52-9.86-11.07-16.25-15.05c-6.44-4.01-13.43-6.75-20.63-8.99c-3.57-1.11-7.18-2.13-10.88-2.7
		c-1.1-0.17-1.66-0.57-1.44-1.78c0.54-3.02,0.34-6.17,1.37-9.09c1.04-2.94,3.38-4.62,6.2-5.72c3-1.18,6.01-0.62,8.96,0.07
		c8.67,2,16.76,5.51,24.45,9.93c7.55,4.34,14.29,9.7,19.97,16.34c4.98,5.82,9.02,12.25,11.86,19.37c2.62,6.58,4.08,13.45,4.72,20.51
		c0.42,4.6,0.31,9.18-0.15,13.75c-0.46,4.58-1.51,9.06-3.06,13.38c-2.89,8.04-7.35,15.16-13.29,21.31
		c-5.56,5.77-11.78,10.74-18.77,14.65c-6.18,3.46-12.56,6.48-19.3,8.76c-4.04,1.37-8.11,2.59-12.23,3.65
		c-3.81,0.98-7.7,1.64-11.59,2.23c-3.35,0.51-6.72,0.91-10.09,1.26c-2.94,0.3-5.89,0.5-8.84,0.61c-6.27,0.24-12.54,0.01-18.79-0.52
		c-4.4-0.37-8.78-1.04-13.16-1.71c-4.26-0.66-8.44-1.67-12.58-2.77c-4.57-1.21-9.03-2.79-13.42-4.56
		c-6.37-2.57-12.43-5.72-18.19-9.45c-3.27-2.12-6.36-4.49-9.34-7.03c-4.59-3.9-8.55-8.33-11.92-13.3
		c-3.01-4.43-5.28-9.23-6.95-14.32c-2.49-7.6-3.38-15.41-2.97-23.36c0.32-6.18,1.33-12.25,3.2-18.19
		c3.26-10.34,8.71-19.34,16.12-27.16c6.59-6.95,14.4-12.25,22.98-16.48c5.34-2.63,10.84-4.81,16.58-6.34
		c2.91-0.77,5.86-1.63,8.95-1.18c3.95,0.58,8.64,3.44,9.07,8.73c0.19,2.37,0.18,4.8,0.79,7.13c0.19,0.74-0.11,0.95-0.8,1.09
		c-6.41,1.35-12.73,3.05-18.84,5.45c-6.43,2.53-12.68,5.49-18.23,9.62c-6.24,4.64-11.49,10.18-13.58,17.98
		c-1.26,4.71-0.27,9.15,1.93,13.41c1.96,3.79,5.05,6.53,8.28,9.14c4.5,3.65,9.68,6.07,14.99,8.3c3.94,1.66,7.97,3.02,12.08,4.15
		c6.67,1.83,13.48,2.92,20.35,3.76C93.23,231.8,99.64,232.02,107.27,231.98z"/>
	<path class="st0" d="M94.48,165.02c0-8.43,0.01-16.86-0.01-25.29c0-1.63-0.11-1.64-1.73-1.96c-4.93-0.98-9.71-2.43-14.3-4.52
		c-7.95-3.62-15.03-8.47-21.04-14.82c-6.12-6.47-10.85-13.85-13.87-22.23c-1.61-4.45-2.65-9.07-3.27-13.8
		c-0.64-4.87-0.7-9.72-0.31-14.58c0.29-3.52,0.91-7.02,1.79-10.47C43.49,50.4,46.4,43.99,50.26,38
		c4.98-7.72,11.44-13.96,19.12-18.96c5.79-3.76,12.05-6.49,18.69-8.3c4.12-1.12,8.35-1.68,12.63-1.91c3.27-0.18,6.53-0.14,9.8,0.1
		c4.28,0.31,8.47,1.06,12.59,2.2c4.26,1.18,8.37,2.78,12.32,4.79c4.97,2.52,9.6,5.55,13.71,9.27c3.54,3.21,6.81,6.69,9.59,10.64
		c2.42,3.43,4.67,6.93,6.4,10.74c1.68,3.69,3.04,7.5,3.99,11.47c1.57,6.53,2.26,13.14,1.81,19.82c-0.26,3.81-0.84,7.59-1.76,11.32
		c-1.32,5.37-3.24,10.49-5.85,15.33c-3.1,5.75-7.05,10.87-11.72,15.46c-5.87,5.77-12.62,10.19-20.11,13.5
		c-4.45,1.96-9.09,3.35-13.87,4.26c-0.75,0.14-1,0.53-0.99,1.23c0.01,1.32-0.01,2.64-0.01,3.96c-0.01,15.94-0.02,31.88-0.02,47.82
		c0,1.36,0.2,1.59,1.41,1.26c2.19-0.59,4.38-1.19,6.4-2.28c1.72-0.93,2.59-2.34,2.82-4.29c0.63-5.31,1.02-10.64,1.9-15.92
		c0.09-0.53,0.05-1.01,0.9-0.82c7.91,1.7,15.25,4.66,21.38,10.04c4.86,4.26,6.88,10.46,4.41,16.55c-1.44,3.55-4.15,6.13-7.16,8.35
		c-5.3,3.91-11.32,6.25-17.63,8.02c-10.26,2.87-20.71,3.64-31.3,3.15c-3.83-0.18-7.67-0.45-11.42-1.14
		c-5.87-1.08-11.65-2.56-17.16-5c-3.96-1.75-7.77-3.72-11-6.63c-3.95-3.55-6.44-7.86-5.92-13.36c0.36-3.78,2.16-7,4.86-9.62
		c3.53-3.43,7.77-5.79,12.3-7.66c3.07-1.26,6.27-2.1,9.5-2.84c0.64-0.15,0.92-0.07,1.04,0.66c0.58,3.47,0.86,6.97,1.39,10.44
		c0.35,2.33,0.17,4.71,0.85,6.99c0.41,1.35,1.23,2.38,2.46,3.1c1.85,1.07,3.85,1.73,5.89,2.28c1.64,0.45,2.01,0.12,2.01-1.59
		c0.01-8.47,0.01-16.94,0.01-25.41C94.49,165.02,94.49,165.02,94.48,165.02z M105.28,119.51c25.53,0.31,45.66-20.71,46.02-44.96
		c0.39-26.35-21.07-46.12-45.56-46.38c-25.8-0.27-47.21,20.25-46.41,47.28C60.04,99.27,79.93,119.85,105.28,119.51z"/>
	<path class="st1" d="M105.28,119.51c-25.35,0.34-45.24-20.24-45.95-44.05c-0.8-27.03,20.61-47.55,46.41-47.28
		c24.48,0.25,45.94,20.02,45.56,46.38C150.94,98.8,130.8,119.82,105.28,119.51z M74.81,55.12c-0.2,3.3,1.03,6.02,3.56,8
		c3.22,2.52,6.95,3.08,10.88,2.08c7.21-1.84,12.08-8.7,11.28-16.08c-0.5-4.63-4.09-8.48-9.15-8.99C87,39.68,83.1,41,79.89,44.07
		C76.75,47.08,74.9,50.71,74.81,55.12z"/>
	<path class="st2" d="M74.81,55.12c0.09-4.41,1.94-8.05,5.09-11.05c3.2-3.07,7.1-4.39,11.47-3.95c5.07,0.51,8.66,4.36,9.15,8.99
		c0.8,7.38-4.07,14.25-11.28,16.08c-3.93,1-7.66,0.44-10.88-2.08C75.84,61.14,74.61,58.42,74.81,55.12z"/>
</g>
</svg>
